<svg width="522" height="446" viewBox="0 0 522 446" fill="none" xmlns="http://www.w3.org/2000/svg">
<path d="M258.5 392C158 263.5 63.8883 267.334 2 270C27.9453 233.611 42.1861 213.18 65 176.5V3L150 72C233.113 40.8472 280.379 40.3851 366 72L450.5 3L456 176.5L520 270C470.512 262.27 349.137 269.641 258.5 392Z" fill="#FD6612" stroke="black"/>
<path d="M257.5 445C176.622 356.34 121.343 317.519 2.5 270.5C110.817 265.541 182 293.5 258 393.5C323 307 415.5 258.5 520 270.5C398.965 305.964 344.758 349.936 257.5 445Z" fill="#ECECEC" stroke="black"/>
<path d="M203.5 260.5C175.931 235.306 159.386 223.018 127 206L149.5 260.5H203.5Z" fill="#DEDDDD"/>
<path d="M394.5 206C359.135 219.359 341.784 231.138 315 260.5H364.5L394.5 206Z" fill="#DEDDDD"/>
<path d="M203.5 260.5C175.931 235.306 159.386 223.018 127 206L149.5 260.5H203.5Z" stroke="black"/>
<path d="M394.5 206C359.135 219.359 341.784 231.138 315 260.5H364.5L394.5 206Z" stroke="black"/>
<path d="M188.5 239.5C188.5 247.148 180.981 253.5 171.5 253.5C162.019 253.5 154.5 247.148 154.5 239.5C154.5 231.852 162.019 225.5 171.5 225.5C180.981 225.5 188.5 231.852 188.5 239.5Z" fill="#C2D110" stroke="black"/>
<ellipse cx="164" cy="233" rx="5" ry="4" fill="#F2EEEE"/>
<path d="M361.5 239.5C361.5 247.148 353.981 253.5 344.5 253.5C335.019 253.5 327.5 247.148 327.5 239.5C327.5 231.852 335.019 225.5 344.5 225.5C353.981 225.5 361.5 231.852 361.5 239.5Z" fill="#C2D110" stroke="black"/>
<ellipse cx="352" cy="233" rx="5" ry="4" fill="#F2EEEE"/>
<ellipse cx="344" cy="241" rx="2" ry="7" fill="black"/>
<ellipse cx="171" cy="241" rx="2" ry="7" fill="black"/>
<path d="M132.5 147.5C191.166 128.679 245 45 260.5 48.0001C276 51.0001 368.133 152.603 382 147.5C393.82 168.304 397.741 180.697 391 206.5C375.618 212.927 359.707 220.599 347 229.5C331.045 240.677 321.5 253 314 261H327.5C320.769 295.174 312.519 314.409 282.5 349L233.5 350.5C214.791 328.935 205.287 305.406 195 260.5H204.5C191.038 248.955 184.755 243.264 168.5 230L127.5 204C120.306 180.608 121.261 168.218 132.5 147.5Z" fill="#BB4A09" stroke="black" stroke-width="0.3"/>
<path d="M137 145.5C128.182 90.8609 109.408 59.1058 64 1.5V177.5C101.149 180.301 115.714 170.783 137 145.5Z" fill="#BD5419" stroke="black" stroke-width="0.5"/>
<path d="M126 138.815C119.477 99.8029 105.59 77.1301 72 36V161.663C99.4801 163.662 110.254 156.866 126 138.815Z" fill="#2F2F2F" stroke="black" stroke-width="0.5"/>
<path d="M381.5 150C389.726 86.5791 406.382 57.4193 450.5 3L456.5 179C422.38 185.927 403.909 179.534 381.5 150Z" fill="#BD5419" stroke="black" stroke-width="0.5"/>
<path d="M394 139.736C399.923 94.9804 411.915 74.4028 443.68 36L448 160.2C423.434 165.089 410.135 160.577 394 139.736Z" fill="#2F2F2F" stroke="black" stroke-width="0.5"/>
<path d="M258 392L223.5 351.5C249.106 336.627 265.929 337.845 293.5 351.5L258 392Z" fill="#2F2F2F" stroke="black"/>
</svg>
